<?xml version="1.0" encoding="UTF-8"?>
<svg version="1.1" xmlns="http://www.w3.org/2000/svg" width="500" height="500">
<path d="M0 0 C14.05512271 -0.56938066 32.632933 -1.32122881 45.53808594 5.13134766 C45.54395218 5.98912308 45.54981842 6.8468985 45.55586243 7.73066711 C45.61373374 15.80908069 45.68577815 23.88721613 45.77380085 31.96535969 C45.81855439 36.11856972 45.85779926 40.27168053 45.88452148 44.42504883 C45.91050514 48.43229041 45.95087177 52.43915117 46.0012722 56.44615746 C46.01797451 57.97593644 46.02946782 59.50578134 46.03569984 61.03563881 C46.04530486 63.17642899 46.07331815 65.31623752 46.10571289 67.45678711 C46.11681595 68.67590286 46.12791901 69.89501862 46.13935852 71.15107727 C46.30155037 74.11248789 46.30155037 74.11248789 47.90104675 76.06413269 C49.58201124 77.40223418 49.58201124 77.40223418 52.16308594 76.88134766 C54.46932664 76.3538912 54.46932664 76.3538912 55.53808594 75.13134766 C55.66189432 73.07656312 55.71606796 71.01755806 55.7434082 68.95922852 C55.7533078 68.31534683 55.7632074 67.67146515 55.77340698 67.0080719 C55.80510121 64.87081634 55.82981043 62.73353852 55.85449219 60.59619141 C55.8750549 59.1178783 55.89605118 57.63957116 55.91746521 56.16127014 C55.97275653 52.26342595 56.02213451 48.36552808 56.0703125 44.46759033 C56.12047613 40.49283043 56.17618895 36.51814882 56.23144531 32.54345703 C56.33911317 24.73948681 56.44053881 16.93545164 56.53808594 9.13134766 C57.96041793 9.591735 59.3815773 10.05574591 60.80224609 10.52124023 C61.98954819 10.90823845 61.98954819 10.90823845 63.20083618 11.30305481 C66.610759 12.51148992 69.73889624 14.09660717 72.91308594 15.81884766 C73.49574219 16.11984375 74.07839844 16.42083984 74.67871094 16.73095703 C76.67543066 17.8000162 78.59682997 18.96413596 80.53808594 20.13134766 C81.44853668 20.6319873 82.35898743 21.13262695 83.29702759 21.6484375 C90.94408414 26.3617468 90.94408414 26.3617468 92.52377319 31.06782532 C92.85674771 34.58776836 92.85413195 37.96132251 92.72558594 41.49462891 C92.72510254 42.76356491 92.72461914 44.03250092 92.72412109 45.33988953 C92.71544843 48.6936921 92.66135092 52.0399851 92.58209229 55.39239502 C92.48050509 60.12810546 92.45964437 64.86472859 92.43774414 69.60136414 C92.42153838 72.11900387 92.38550903 74.63660848 92.32788086 77.15364075 C92.31217041 78.28879623 92.29645996 79.42395172 92.28027344 80.59350586 C92.25819824 81.59307816 92.23612305 82.59265045 92.21337891 83.62251282 C92.3395517 86.17050417 92.3395517 86.17050417 93.89013672 87.99308777 C95.56738914 89.41276181 95.56738914 89.41276181 98.16308594 88.88134766 C100.46932664 88.3538912 100.46932664 88.3538912 101.53808594 87.13134766 C101.66051904 85.62817996 101.71584879 84.11946598 101.7434082 82.61157227 C101.76335342 81.6506517 101.78329865 80.68973114 101.80384827 79.69969177 C101.82056076 78.65491165 101.83727325 77.61013153 101.85449219 76.53369141 C101.88566383 74.93769859 101.88566383 74.93769859 101.91746521 73.3094635 C101.98307847 69.89599326 102.04190016 66.48244336 102.10058594 63.06884766 C102.14375997 60.76089657 102.18737388 58.45295366 102.23144531 56.14501953 C102.33877178 50.47388083 102.44051586 44.80266214 102.53808594 39.13134766 C106.54534056 40.95759947 108.94849377 43.53618047 111.72558594 46.88134766 C112.20680908 47.45844482 112.68803223 48.03554199 113.18383789 48.63012695 C124.15203073 62.04937328 132.59688295 77.32388335 137.91308594 93.81884766 C138.27116333 94.92135864 138.27116333 94.92135864 138.63647461 96.04614258 C140.03097178 100.63613126 140.90754103 105.1896239 141.61474609 109.93530273 C141.78930328 111.09798172 141.96386047 112.26066071 142.14370728 113.45857239 C142.33892471 114.78159615 142.33892471 114.78159615 142.53808594 116.13134766 C141.68110611 116.11722839 140.82412628 116.10310913 139.94117737 116.08856201 C131.83503119 115.96574619 123.73090808 115.90116605 115.62379551 115.90075302 C111.45620656 115.89851964 107.2912235 115.87437477 103.12426758 115.79882812 C99.09671068 115.72663691 95.07279228 115.71373709 91.0447216 115.74063873 C89.51412622 115.74069421 87.98337429 115.71996241 86.45337105 115.67739105 C77.37011581 115.38314988 77.37011581 115.38314988 69.68844604 119.72692871 C67.41187535 122.76747488 65.48979029 125.87693661 63.53808594 129.13134766 C53.80591993 140.47407713 40.18610557 148.84301672 25.53808594 152.13134766 C24.21808594 152.13134766 22.89808594 152.13134766 21.53808594 152.13134766 C21.53808594 158.40134766 21.53808594 164.67134766 21.53808594 171.13134766 C29.45808594 171.13134766 37.37808594 171.13134766 45.53808594 171.13134766 C45.53808594 179.38134766 45.53808594 187.63134766 45.53808594 196.13134766 C37.61808594 196.13134766 29.69808594 196.13134766 21.53808594 196.13134766 C21.53808594 204.38134766 21.53808594 212.63134766 21.53808594 221.13134766 C12.95808594 221.13134766 4.37808594 221.13134766 -4.46191406 221.13134766 C-4.46191406 212.88134766 -4.46191406 204.63134766 -4.46191406 196.13134766 C-12.31534185 196.17093759 -12.31534185 196.17093759 -20.16870117 196.22143555 C-21.62675171 196.22518188 -21.62675171 196.22518188 -23.11425781 196.22900391 C-24.61460571 196.23685913 -24.61460571 196.23685913 -26.14526367 196.24487305 C-28.46191406 196.13134766 -28.46191406 196.13134766 -29.46191406 195.13134766 C-29.5628203 192.22584166 -29.6005648 189.34917983 -29.58691406 186.44384766 C-29.59078125 185.64011719 -29.59464844 184.83638672 -29.59863281 184.00830078 C-29.59734375 183.22003906 -29.59605469 182.43177734 -29.59472656 181.61962891 C-29.59359863 180.90331299 -29.5924707 180.18699707 -29.59130859 179.44897461 C-29.43533831 176.65534078 -28.92189986 173.89126246 -28.46191406 171.13134766 C-20.54191406 171.13134766 -12.62191406 171.13134766 -4.46191406 171.13134766 C-4.46191406 164.86134766 -4.46191406 158.59134766 -4.46191406 152.13134766 C-7.10191406 151.80134766 -9.74191406 151.47134766 -12.46191406 151.13134766 C-14.66430664 150.50219727 -14.66430664 150.50219727 -16.35644531 149.78369141 C-16.99646484 149.51242432 -17.63648438 149.24115723 -18.29589844 148.96166992 C-18.94880859 148.66703857 -19.60171875 148.37240723 -20.27441406 148.06884766 C-21.3137207 147.60466431 -21.3137207 147.60466431 -22.37402344 147.13110352 C-35.8486147 140.88864633 -46.8656761 130.90252273 -54.46191406 118.13134766 C-54.46191406 117.47134766 -54.46191406 116.81134766 -54.46191406 116.13134766 C-77.89191406 116.13134766 -101.32191406 116.13134766 -125.46191406 116.13134766 C-121.91263269 97.20184701 -121.91263269 97.20184701 -119.89941406 91.31884766 C-119.6503833 90.58585449 -119.40135254 89.85286133 -119.14477539 89.09765625 C-112.83087313 71.41573489 -101.41284982 49.76530483 -85.46191406 39.13134766 C-85.45604782 39.7135054 -85.45018158 40.29566315 -85.44413757 40.89546204 C-85.38027872 46.94633726 -85.29587902 52.9966769 -85.19946289 59.04711914 C-85.1661772 61.30616196 -85.13815673 63.56528868 -85.11547852 65.82446289 C-85.0819998 69.06904914 -85.02968688 72.31286398 -84.97363281 75.55712891 C-84.96724289 76.56971268 -84.96085297 77.58229645 -84.95426941 78.62556458 C-84.92457817 80.0366877 -84.92457817 80.0366877 -84.89428711 81.47631836 C-84.87763252 82.71875053 -84.87763252 82.71875053 -84.86064148 83.98628235 C-84.36992589 86.62622367 -83.61282425 87.55815689 -81.46191406 89.13134766 C-78.83462267 89.05601519 -78.83462267 89.05601519 -76.46191406 88.13134766 C-75.15096207 85.50944366 -75.37258408 83.62625259 -75.4152832 80.69116211 C-75.43378075 78.98347404 -75.43378075 78.98347404 -75.45265198 77.24128723 C-75.47463905 75.38669136 -75.47463905 75.38669136 -75.49707031 73.49462891 C-75.50467346 70.21073388 -75.50688671 66.92688928 -75.50675297 63.64298725 C-75.50974655 60.20451048 -75.53033947 56.76784955 -75.58862305 53.32983398 C-75.65460851 49.36339616 -75.63975852 45.39910559 -75.62207031 41.43212891 C-75.65494644 40.20585281 -75.68782257 38.97957672 -75.72169495 37.71614075 C-75.60532094 29.34082978 -75.60532094 29.34082978 -72.2888031 25.83265686 C-69.74977576 24.03383472 -67.22793302 22.55010259 -64.46191406 21.13134766 C-63.21745963 20.3728496 -61.97610167 19.60922482 -60.73925781 18.83837891 C-43.62686252 9.13134766 -43.62686252 9.13134766 -39.46191406 9.13134766 C-39.45382721 9.95375946 -39.44574036 10.77617126 -39.43740845 11.62350464 C-39.35955525 19.36371588 -39.27229317 27.10373608 -39.17438698 34.84371758 C-39.124383 38.82318492 -39.07805359 42.80262519 -39.04003906 46.78222656 C-39.00323769 50.62081648 -38.95689231 54.45918205 -38.90385056 58.29758072 C-38.88527909 59.76399944 -38.87018134 61.23046629 -38.8585701 62.69695663 C-38.84175419 64.74677387 -38.81273208 66.79607422 -38.78076172 68.84570312 C-38.76743805 70.01374481 -38.75411438 71.1817865 -38.74038696 72.38522339 C-38.7396484 75.27505338 -38.7396484 75.27505338 -36.46191406 77.13134766 C-33.96191406 77.46468099 -33.96191406 77.46468099 -31.46191406 77.13134766 C-28.63617211 74.3056057 -29.18564644 72.43845922 -29.14306641 68.47851562 C-29.13302078 67.79547363 -29.12297516 67.11243164 -29.11262512 66.40869141 C-29.08169036 64.14698136 -29.06472984 61.88539022 -29.04785156 59.62353516 C-29.02914814 58.05696584 -29.00957536 56.49040667 -28.98916626 54.92385864 C-28.93775154 50.79752583 -28.89817603 46.67116032 -28.86102295 42.54467773 C-28.82104165 38.33520356 -28.7699226 34.12586648 -28.71972656 29.91650391 C-28.62285678 21.65487867 -28.53848762 13.39318581 -28.46191406 5.13134766 C-18.97820262 2.79036263 -9.77999053 0.52178053 0 0 Z " fill="#FA8402" transform="translate(241.4619140625,86.86865234375)"/>
<path d="M0 0 C8.16235313 -0.04632061 16.32465143 -0.08186773 24.48710346 -0.10362434 C28.27717541 -0.11406591 32.0671575 -0.12823182 35.85717773 -0.15087891 C39.51409477 -0.17259413 43.17092531 -0.18456582 46.82790184 -0.18975449 C48.22377064 -0.19345263 49.61963466 -0.20067411 51.01546669 -0.21146011 C52.96900449 -0.22595663 54.92262913 -0.22681676 56.8762207 -0.22705078 C58.5450103 -0.23371262 58.5450103 -0.23371262 60.24751282 -0.24050903 C63 0 63 0 66 2 C66.328125 5.15234375 66.328125 5.15234375 66.25 8.9375 C66.23453125 10.18402344 66.2190625 11.43054688 66.203125 12.71484375 C66 16 66 16 65 19 C62.61842544 19.8439123 60.38508343 20.49116208 57.9375 21.0625 C57.29361328 21.22298828 56.64972656 21.38347656 55.98632812 21.54882812 C55.33986328 21.70931641 54.69339844 21.86980469 54.02734375 22.03515625 C53.36984131 22.20668213 52.71233887 22.37820801 52.03491211 22.55493164 C50 23 50 23 47.85766602 23.14624023 C45.47900292 23.40441321 44.02568683 23.70773687 42 25 C39.96437737 28.77526453 39.07223748 32.788815 38.0625 36.9375 C35.71197115 45.51666407 33.19692693 53.6709459 29.3125 61.6875 C28.95615479 62.43314209 28.59980957 63.17878418 28.23266602 63.94702148 C26.47485924 67.484968 24.59990624 70.59056082 22.16796875 73.70703125 C19.79914004 76.68789708 19.79914004 76.68789708 19.90234375 79.47265625 C21.75235031 83.7322799 24.29445467 87.51907634 26.84960938 91.38476562 C27.25115234 92.01962891 27.65269531 92.65449219 28.06640625 93.30859375 C28.43709229 93.87376709 28.80777832 94.43894043 29.18969727 95.02124023 C30.36867539 97.90030553 30.3938887 99.91392952 30 103 C28.16748047 105.60888672 28.16748047 105.60888672 25.6171875 108.1796875 C24.69679688 109.1078125 23.77640625 110.0359375 22.828125 110.9921875 C22.34279297 111.46495117 21.85746094 111.93771484 21.35742188 112.42480469 C19.87897681 113.87110964 18.43529469 115.346653 16.9921875 116.828125 C16.0640625 117.74851562 15.1359375 118.66890625 14.1796875 119.6171875 C13.33132324 120.45878418 12.48295898 121.30038086 11.60888672 122.16748047 C8.41213398 124.41292554 6.83197234 124.53873173 3 124 C0.82177734 123.06616211 0.82177734 123.06616211 -1.1640625 121.77734375 C-1.89367187 121.32166016 -2.62328125 120.86597656 -3.375 120.39648438 C-4.48875 119.67428711 -4.48875 119.67428711 -5.625 118.9375 C-7.10989377 117.9769115 -8.60186611 117.027154 -10.1015625 116.08984375 C-11.08116943 115.45357056 -11.08116943 115.45357056 -12.08056641 114.80444336 C-14.51516263 113.784093 -15.5616245 114.08015404 -18 115 C-20.10665398 116.16720018 -22.18694145 117.38236706 -24.25 118.625 C-38.22840427 126.80621648 -53.68503153 133.69480252 -70 135 C-70.0825 136.19625 -70.165 137.3925 -70.25 138.625 C-70.99500255 145.20410707 -72.44261708 151.88663701 -75 158 C-79.75022716 161.31798386 -85.93079032 160.37195341 -91.47216797 160.37060547 C-93.49401596 160.37498703 -95.51369292 160.41135626 -97.53515625 160.44921875 C-98.81261719 160.45308594 -100.09007812 160.45695313 -101.40625 160.4609375 C-102.57478516 160.46915527 -103.74332031 160.47737305 -104.94726562 160.48583984 C-108.64990134 159.8965688 -109.77091721 158.96460176 -112 156 C-112.82128906 154.06469727 -112.82128906 154.06469727 -113.265625 152.06640625 C-113.43320313 151.33486328 -113.60078125 150.60332031 -113.7734375 149.84960938 C-113.93070313 149.09486328 -114.08796875 148.34011719 -114.25 147.5625 C-114.42273438 146.81162109 -114.59546875 146.06074219 -114.7734375 145.28710938 C-115.62798444 141.43147498 -116.08105604 137.96614093 -116 134 C-116.60513428 133.96261719 -117.21026855 133.92523438 -117.83374023 133.88671875 C-124.25597819 133.38248069 -129.9761172 132.07739159 -136.0625 130 C-136.96500488 129.69602295 -137.86750977 129.3920459 -138.79736328 129.07885742 C-147.70708452 125.95567661 -155.84791171 121.71883001 -164 117 C-165.32521853 116.24296014 -166.65072701 115.48642758 -167.9765625 114.73046875 C-168.97429687 114.15941406 -169.97203125 113.58835937 -171 113 C-171.51908936 113.33322266 -172.03817871 113.66644531 -172.57299805 114.00976562 C-174.93724583 115.51824274 -177.3120812 117.00918204 -179.6875 118.5 C-180.50412109 119.02464844 -181.32074219 119.54929687 -182.16210938 120.08984375 C-182.95810547 120.58613281 -183.75410156 121.08242188 -184.57421875 121.59375 C-185.30213623 122.05458984 -186.03005371 122.51542969 -186.7800293 122.99023438 C-189.52722094 124.23980928 -191.01220786 124.51180169 -194 124 C-197.60551909 121.33458062 -200.68569204 118.11637106 -203.83154297 114.93017578 C-205.37049166 113.37954257 -206.93868808 111.86361105 -208.51171875 110.34765625 C-209.49673218 109.36652768 -210.47987214 108.38351388 -211.4609375 107.3984375 C-212.35603027 106.50817871 -213.25112305 105.61791992 -214.17333984 104.70068359 C-216 102 -216 102 -215.9309082 98.90698242 C-215.07806139 96.24376527 -214.24009518 94.36125395 -212.64453125 92.08984375 C-211.95907227 91.06987305 -211.95907227 91.06987305 -211.25976562 90.02929688 C-210.2892913 88.62662751 -209.31264032 87.22821294 -208.33007812 85.83398438 C-205.54970401 81.94984789 -205.54970401 81.94984789 -205.46484375 77.40625 C-205.97144531 76.6121875 -206.47804687 75.818125 -207 75 C-207.57234375 73.99066406 -208.1446875 72.98132813 -208.734375 71.94140625 C-209.39953125 70.82636719 -210.0646875 69.71132813 -210.75 68.5625 C-218.77942801 54.67926606 -223.07984987 40.4663158 -227 25 C-227.62044189 24.85900879 -228.24088379 24.71801758 -228.88012695 24.57275391 C-231.69242449 23.92989791 -234.50244009 23.27756447 -237.3125 22.625 C-238.77719727 22.29242188 -238.77719727 22.29242188 -240.27148438 21.953125 C-241.20927734 21.73398438 -242.14707031 21.51484375 -243.11328125 21.2890625 C-243.97735596 21.09006348 -244.84143066 20.89106445 -245.73168945 20.68603516 C-248 20 -248 20 -251 18 C-251 12.39 -251 6.78 -251 1 C-228.89 1 -206.78 1 -184 1 C-183.01 10.405 -183.01 10.405 -182 20 C-177.67439496 36.43729914 -170.96355417 50.06370439 -160 63 C-159.37609375 63.73863281 -158.7521875 64.47726562 -158.109375 65.23828125 C-141.98798643 82.7264832 -118.49743161 90.17729547 -95.49609375 92.22265625 C-72.34910212 93.14853592 -48.60220457 84.05931406 -31.5625 68.5625 C-14.04802038 51.89720727 -4.80463568 30.9372308 -2.45703125 7.07421875 C-2.03028703 4.2037256 -1.34899519 2.5105075 0 0 Z " fill="#51A02E" transform="translate(343,221)"/>
<path d="M0 0 C0.00808685 0.8224118 0.01617371 1.64482361 0.02450562 2.49215698 C0.10235881 10.23236822 0.18962089 17.97238842 0.28752708 25.71236992 C0.33753106 29.69183727 0.38386047 33.67127753 0.421875 37.65087891 C0.45867637 41.48946882 0.50502175 45.3278344 0.55806351 49.16623306 C0.57663497 50.63265178 0.59173272 52.09911863 0.60334396 53.56560898 C0.62015988 55.61542621 0.64918198 57.66472656 0.68115234 59.71435547 C0.69447601 60.88239716 0.70779968 62.05043884 0.7215271 63.25387573 C0.72226567 66.14370572 0.72226567 66.14370572 3 68 C6.73296326 68.38286803 7.77626323 68.14915785 11 66 C12.00419637 68.4566947 13.00350501 70.91518353 14 73.375 C14.28617187 74.07367188 14.57234375 74.77234375 14.8671875 75.4921875 C17 80.7734375 17 80.7734375 17 83 C17.66 83 18.32 83 19 83 C21.56942692 85.43053898 23.94813024 87.93948528 26.25 90.625 C29.8421568 93.72731723 33.47173127 94.78654237 38 96 C38 96.66 38 97.32 38 98 C38.969375 98.103125 39.93875 98.20625 40.9375 98.3125 C43.83722384 98.71749138 46.39340916 99.43698314 49.140625 100.44140625 C53.98042017 102.08866953 58.75870797 102.92956028 63.8125 103.625 C65.03163086 103.80675781 65.03163086 103.80675781 66.27539062 103.9921875 C77.39083111 105.59378582 88.5352495 106.17556574 99.75 106.5625 C100.9359375 106.60568359 102.121875 106.64886719 103.34375 106.69335938 C106.22908676 106.79806918 109.11448842 106.90024521 112 107 C101.96101728 124.31786512 87.30360245 136.40478411 68.0625 142.3125 C65 143 65 143 61 143 C61 149.27 61 155.54 61 162 C68.92 162 76.84 162 85 162 C85 170.25 85 178.5 85 187 C77.08 187 69.16 187 61 187 C61 195.25 61 203.5 61 212 C52.42 212 43.84 212 35 212 C35 203.75 35 195.5 35 187 C27.14657221 187.03958993 27.14657221 187.03958993 19.29321289 187.09008789 C17.83516235 187.09383423 17.83516235 187.09383423 16.34765625 187.09765625 C14.84730835 187.10551147 14.84730835 187.10551147 13.31665039 187.11352539 C11 187 11 187 10 186 C9.89909377 183.094494 9.86134926 180.21783217 9.875 177.3125 C9.87113281 176.50876953 9.86726563 175.70503906 9.86328125 174.87695312 C9.86457031 174.08869141 9.86585938 173.30042969 9.8671875 172.48828125 C9.86831543 171.77196533 9.86944336 171.05564941 9.87060547 170.31762695 C10.02657576 167.52399313 10.5400142 164.75991481 11 162 C18.92 162 26.84 162 35 162 C35 155.73 35 149.46 35 143 C32.36 142.67 29.72 142.34 27 142 C24.79760742 141.37084961 24.79760742 141.37084961 23.10546875 140.65234375 C22.46544922 140.38107666 21.82542969 140.10980957 21.16601562 139.83032227 C20.51310547 139.53569092 19.86019531 139.24105957 19.1875 138.9375 C18.14819336 138.47331665 18.14819336 138.47331665 17.08789062 137.99975586 C3.61329936 131.75729867 -7.40376204 121.77117507 -15 109 C-15 108.34 -15 107.68 -15 107 C-38.43 107 -61.86 107 -86 107 C-82.45071863 88.07049935 -82.45071863 88.07049935 -80.4375 82.1875 C-80.18846924 81.45450684 -79.93943848 80.72151367 -79.68286133 79.96630859 C-73.36895907 62.28438723 -61.95093576 40.63395717 -46 30 C-45.99413376 30.58215775 -45.98826752 31.16431549 -45.98222351 31.76411438 C-45.91836466 37.81498961 -45.83396496 43.86532924 -45.73754883 49.91577148 C-45.70426314 52.17481431 -45.67624267 54.43394103 -45.65356445 56.69311523 C-45.62008574 59.93770148 -45.56777282 63.18151633 -45.51171875 66.42578125 C-45.50532883 67.43836502 -45.4989389 68.45094879 -45.49235535 69.49421692 C-45.46266411 70.90534004 -45.46266411 70.90534004 -45.43237305 72.3449707 C-45.41571846 73.58740288 -45.41571846 73.58740288 -45.39872742 74.85493469 C-44.90801183 77.49487601 -44.15091019 78.42680923 -42 80 C-39.3727086 79.92466753 -39.3727086 79.92466753 -37 79 C-35.689048 76.37809601 -35.91067002 74.49490494 -35.95336914 71.55981445 C-35.97186668 69.85212639 -35.97186668 69.85212639 -35.99073792 68.10993958 C-36.01272499 66.2553437 -36.01272499 66.2553437 -36.03515625 64.36328125 C-36.0427594 61.07938622 -36.04497265 57.79554163 -36.04483891 54.5116396 C-36.04783248 51.07316282 -36.0684254 47.63650189 -36.12670898 44.19848633 C-36.19269445 40.2320485 -36.17784446 36.26775794 -36.16015625 32.30078125 C-36.19303238 31.07450516 -36.22590851 29.84822906 -36.25978088 28.58479309 C-36.14340688 20.20948213 -36.14340688 20.20948213 -32.82688904 16.7013092 C-30.28786169 14.90248707 -27.76601896 13.41875493 -25 12 C-23.75554557 11.24150195 -22.5141876 10.47787716 -21.27734375 9.70703125 C-4.16494845 0 -4.16494845 0 0 0 Z " fill="#EF5A25" transform="translate(202,96)"/>
<path d="M0 0 C8.16235313 -0.04632061 16.32465143 -0.08186773 24.48710346 -0.10362434 C28.27717541 -0.11406591 32.0671575 -0.12823182 35.85717773 -0.15087891 C39.51409477 -0.17259413 43.17092531 -0.18456582 46.82790184 -0.18975449 C48.22377064 -0.19345263 49.61963466 -0.20067411 51.01546669 -0.21146011 C52.96900449 -0.22595663 54.92262913 -0.22681676 56.8762207 -0.22705078 C58.5450103 -0.23371262 58.5450103 -0.23371262 60.24751282 -0.24050903 C63 0 63 0 66 2 C66.328125 5.15234375 66.328125 5.15234375 66.25 8.9375 C66.23453125 10.18402344 66.2190625 11.43054688 66.203125 12.71484375 C66 16 66 16 65 19 C62.61842544 19.8439123 60.38508343 20.49116208 57.9375 21.0625 C57.29361328 21.22298828 56.64972656 21.38347656 55.98632812 21.54882812 C55.33986328 21.70931641 54.69339844 21.86980469 54.02734375 22.03515625 C53.36984131 22.20668213 52.71233887 22.37820801 52.03491211 22.55493164 C50 23 50 23 47.85766602 23.14624023 C45.47900292 23.40441321 44.02568683 23.70773687 42 25 C39.96437737 28.77526453 39.07223748 32.788815 38.0625 36.9375 C35.71197115 45.51666407 33.19692693 53.6709459 29.3125 61.6875 C28.95615479 62.43314209 28.59980957 63.17878418 28.23266602 63.94702148 C26.47485924 67.484968 24.59990624 70.59056082 22.16796875 73.70703125 C19.79914004 76.68789708 19.79914004 76.68789708 19.90234375 79.47265625 C21.75235031 83.7322799 24.29445467 87.51907634 26.84960938 91.38476562 C27.25115234 92.01962891 27.65269531 92.65449219 28.06640625 93.30859375 C28.43709229 93.87376709 28.80777832 94.43894043 29.18969727 95.02124023 C30.36867539 97.90030553 30.3938887 99.91392952 30 103 C28.16748047 105.60888672 28.16748047 105.60888672 25.6171875 108.1796875 C24.69679688 109.1078125 23.77640625 110.0359375 22.828125 110.9921875 C22.34279297 111.46495117 21.85746094 111.93771484 21.35742188 112.42480469 C19.87897681 113.87110964 18.43529469 115.346653 16.9921875 116.828125 C15.6 118.20871094 15.6 118.20871094 14.1796875 119.6171875 C12.90714111 120.87958252 12.90714111 120.87958252 11.60888672 122.16748047 C8.41213398 124.41292554 6.83197234 124.53873173 3 124 C0.82177734 123.06616211 0.82177734 123.06616211 -1.1640625 121.77734375 C-1.89367187 121.32166016 -2.62328125 120.86597656 -3.375 120.39648438 C-4.48875 119.67428711 -4.48875 119.67428711 -5.625 118.9375 C-7.10989377 117.9769115 -8.60186611 117.027154 -10.1015625 116.08984375 C-10.75463379 115.66566162 -11.40770508 115.24147949 -12.08056641 114.80444336 C-14.51516263 113.784093 -15.5616245 114.08015404 -18 115 C-20.10665398 116.16720018 -22.18694145 117.38236706 -24.25 118.625 C-38.22840427 126.80621648 -53.68503153 133.69480252 -70 135 C-70.0825 136.19625 -70.165 137.3925 -70.25 138.625 C-70.99500255 145.20410707 -72.44261708 151.88663701 -75 158 C-79.75022716 161.31798386 -85.93079032 160.37195341 -91.47216797 160.37060547 C-93.49401596 160.37498703 -95.51369292 160.41135626 -97.53515625 160.44921875 C-98.81261719 160.45308594 -100.09007812 160.45695313 -101.40625 160.4609375 C-102.57478516 160.46915527 -103.74332031 160.47737305 -104.94726562 160.48583984 C-108.64990134 159.8965688 -109.77091721 158.96460176 -112 156 C-112.82128906 154.06469727 -112.82128906 154.06469727 -113.265625 152.06640625 C-113.51699219 150.9690918 -113.51699219 150.9690918 -113.7734375 149.84960938 C-113.93070313 149.09486328 -114.08796875 148.34011719 -114.25 147.5625 C-114.42273438 146.81162109 -114.59546875 146.06074219 -114.7734375 145.28710938 C-115.62050149 141.46523732 -116.21925884 137.93882844 -116 134 C-115.11441406 133.59910156 -114.22882813 133.19820312 -113.31640625 132.78515625 C-76.74961044 116.0774821 -43.51977276 93.89883046 -20.5625 60.1875 C-20.12486328 59.55303955 -19.68722656 58.9185791 -19.23632812 58.26489258 C-16.92414568 54.79982519 -15.69105407 52.06954065 -15 48 C-13.93574927 45.65641375 -12.83720382 43.36250598 -11.6875 41.0625 C-6.43716876 30.13000951 -3.73684673 19.19445922 -2.4921875 7.1796875 C-2.0409431 4.26450539 -1.37049466 2.54697975 0 0 Z " fill="#D9F0CF" transform="translate(343,221)"/>
<path d="M0 0 C8.58 0 17.16 0 26 0 C26 6.27 26 12.54 26 19 C33.92 19 41.84 19 50 19 C50 27.25 50 35.5 50 44 C42.08 44 34.16 44 26 44 C26 52.25 26 60.5 26 69 C17.42 69 8.84 69 0 69 C0 60.75 0 52.5 0 44 C-7.85342779 44.03958993 -7.85342779 44.03958993 -15.70678711 44.09008789 C-16.6788208 44.09258545 -17.65085449 44.09508301 -18.65234375 44.09765625 C-20.15269165 44.10551147 -20.15269165 44.10551147 -21.68334961 44.11352539 C-24 44 -24 44 -25 43 C-25.10090623 40.094494 -25.13865074 37.21783217 -25.125 34.3125 C-25.12886719 33.50876953 -25.13273438 32.70503906 -25.13671875 31.87695312 C-25.13542969 31.08869141 -25.13414062 30.30042969 -25.1328125 29.48828125 C-25.13112061 28.41380737 -25.13112061 28.41380737 -25.12939453 27.31762695 C-24.97342424 24.52399313 -24.4599858 21.75991481 -24 19 C-16.08 19 -8.16 19 0 19 C0 12.73 0 6.46 0 0 Z " fill="#D10204" transform="translate(237,239)"/>
<path d="M0 0 C0.66 0 1.32 0 2 0 C-2.21287033 12.21732397 -15.29814846 31.14907423 -27 37 C-26.505 34.03 -26.505 34.03 -26 31 C-27.98 31 -29.96 31 -32 31 C-29.35088672 28.0555152 -26.23567527 26.10352452 -22.9375 23.9375 C-14.02985734 17.90349154 -6.69318395 10.92052419 -1.15625 1.6171875 C-0.7746875 1.08351563 -0.393125 0.54984375 0 0 Z " fill="#589E37" transform="translate(326,272)"/>
<path d="M0 0 C-0.66 0.66 -1.32 1.32 -2 2 C-3.32 2 -4.64 2 -6 2 C-6 25.43 -6 48.86 -6 73 C-6.33 73 -6.66 73 -7 73 C-7 48.91 -7 24.82 -7 0 C-3.86650268 -1.04449911 -3.01031744 -0.93423645 0 0 Z " fill="#FB7E14" transform="translate(220,92)"/>
<path d="M0 0 C2.31 0.66 4.62 1.32 7 2 C6.67 2.66 6.34 3.32 6 4 C4.68 4 3.36 4 2 4 C1.67 24.79 1.34 45.58 1 67 C-0.98 67.99 -0.98 67.99 -3 69 C-2.34 68.01 -1.68 67.02 -1 66 C-0.67007391 63.02749123 -0.67007391 63.02749123 -0.68115234 59.60083008 C-0.67110672 58.95665634 -0.6610611 58.3124826 -0.65071106 57.64878845 C-0.61985295 55.52237835 -0.60283707 53.3960943 -0.5859375 51.26953125 C-0.56722791 49.79407159 -0.54765466 48.31862265 -0.5272522 46.84318542 C-0.47590264 42.96182575 -0.43629219 39.08043137 -0.39910889 35.19891357 C-0.35908684 31.23733923 -0.30798632 27.2759096 -0.2578125 23.31445312 C-0.16101982 15.54306799 -0.0766259 7.77161291 0 0 Z " fill="#DD8221" transform="translate(298,96)"/>
<path d="M0 0 C0.54019775 0.12552246 1.08039551 0.25104492 1.63696289 0.38037109 C13.42867556 3.06773167 25.85839733 5.86166212 38 5 C39.14984375 4.92265625 40.2996875 4.8453125 41.484375 4.765625 C44.65880074 4.53401454 47.82937541 4.27829934 51 4 C45.10187436 7.93208376 37.16451661 7.29893403 30.25 7.625 C28.83267578 7.70234375 28.83267578 7.70234375 27.38671875 7.78125 C26.02740234 7.84699219 26.02740234 7.84699219 24.640625 7.9140625 C23.41134277 7.9752124 23.41134277 7.9752124 22.15722656 8.03759766 C20 8 20 8 17 7 C17 6.34 17 5.68 17 5 C16.02417969 4.95101563 15.04835937 4.90203125 14.04296875 4.8515625 C12.13451172 4.73941406 12.13451172 4.73941406 10.1875 4.625 C8.92292969 4.55539062 7.65835938 4.48578125 6.35546875 4.4140625 C3 4 3 4 0 2 C0 1.34 0 0.68 0 0 Z " fill="#589237" transform="translate(217,308)"/>
<path d="M0 0 C2.8605891 1.35937085 4.85927699 2.64520469 7 5 C6.67 5.66 6.34 6.32 6 7 C4.68 6.34 3.36 5.68 2 5 C1.67 19.85 1.34 34.7 1 50 C-1.475 50.495 -1.475 50.495 -4 51 C-3.27087654 50.40435493 -3.27087654 50.40435493 -2.52702332 49.79667664 C-0.5665804 47.49004389 -0.60699779 46.25323161 -0.56762695 43.25317383 C-0.54783279 42.29240433 -0.52803864 41.33163483 -0.50764465 40.3417511 C-0.50125473 39.30729355 -0.49486481 38.272836 -0.48828125 37.20703125 C-0.46135445 35.61528328 -0.46135445 35.61528328 -0.43388367 33.99137878 C-0.37965476 30.59845975 -0.3458441 27.20568238 -0.3125 23.8125 C-0.2793381 21.5136521 -0.2448495 19.21482294 -0.20898438 16.91601562 C-0.12392118 11.27747079 -0.05562466 5.6389079 0 0 Z " fill="#E28421" transform="translate(344,126)"/>
<path d="M0 0 C0.66 0 1.32 0 2 0 C0.3518456 5.03382098 -2.60648051 9.0260491 -5.625 13.3125 C-6.140625 14.05306641 -6.65625 14.79363281 -7.1875 15.55664062 C-8.45394726 17.37422697 -9.72485759 19.18850838 -11 21 C-12.32 20.01 -13.64 19.02 -15 18 C-14.41992188 17.45472656 -13.83984375 16.90945313 -13.2421875 16.34765625 C-8.49978242 11.76959194 -4.58696032 7.31160054 -1.19140625 1.65234375 C-0.79824219 1.10707031 -0.40507812 0.56179688 0 0 Z " fill="#649C46" transform="translate(326,272)"/>
<path d="M0 0 C7.59 0 15.18 0 23 0 C23 0.33 23 0.66 23 1 C22.35933594 1.06058594 21.71867187 1.12117188 21.05859375 1.18359375 C16.01576687 1.67209412 11.0087898 2.23779286 6 3 C5.67 3.99 5.34 4.98 5 6 C3.35 6.33 1.7 6.66 0 7 C0 4.69 0 2.38 0 0 Z " fill="#C30A0C" transform="translate(213,258)"/>
<path d="M0 0 C-3.10283021 1.48198208 -6.20748727 2.96009683 -9.3125 4.4375 C-10.19357422 4.85837891 -11.07464844 5.27925781 -11.98242188 5.71289062 C-12.82998047 6.11572266 -13.67753906 6.51855469 -14.55078125 6.93359375 C-15.33106689 7.30540771 -16.11135254 7.67722168 -16.9152832 8.06030273 C-21.10743335 9.94993687 -24.43341871 10.08616191 -29 10 C-29 9.67 -29 9.34 -29 9 C-28.25234375 8.81824219 -27.5046875 8.63648438 -26.734375 8.44921875 C-25.74953125 8.19785156 -24.7646875 7.94648438 -23.75 7.6875 C-22.28820312 7.32205078 -22.28820312 7.32205078 -20.796875 6.94921875 C-17.97271461 5.99073974 -16.2743517 4.89043336 -14 3 C-11 1 -11 1 -9 0 C-9 0.66 -9 1.32 -9 2 C-7.6078125 1.2265625 -7.6078125 1.2265625 -6.1875 0.4375 C-3 -1 -3 -1 0 0 Z " fill="#61A045" transform="translate(250,345)"/>
<path d="M0 0 C0.99 0.66 1.98 1.32 3 2 C5.05709596 2.24055468 5.05709596 2.24055468 7.1875 2.125 C8.445625 2.08375 9.70375 2.0425 11 2 C8.45993399 4.66102153 6.3045035 6.76585835 2.5625 7.4375 C0 7 0 7 -2.3125 4.5 C-2.869375 3.675 -3.42625 2.85 -4 2 C-2.68 1.34 -1.36 0.68 0 0 Z " fill="#579939" transform="translate(149,338)"/>
<path d="M0 0 C1.83979073 2.7596861 2.48323221 4.29741882 3.1875 7.4375 C3.36667969 8.19933594 3.54585938 8.96117187 3.73046875 9.74609375 C4.0154963 12.12958496 3.72875415 13.73104204 3 16 C2.62875 15.0409375 2.62875 15.0409375 2.25 14.0625 C1.18437567 11.81258459 1.18437567 11.81258459 -1.125 11.25 C-1.74375 11.1675 -2.3625 11.085 -3 11 C-2.67 9.02 -2.34 7.04 -2 5 C-1.34 5 -0.68 5 0 5 C0 3.35 0 1.7 0 0 Z " fill="#F3850B" transform="translate(379,183)"/>
<path d="M0 0 C0.99 0 1.98 0 3 0 C3.2475 0.639375 3.495 1.27875 3.75 1.9375 C4.79688294 4.19895007 4.79688294 4.19895007 7.0625 4.5625 C8.0215625 4.7790625 8.0215625 4.7790625 9 5 C9.33 5.99 9.66 6.98 10 8 C11.65 8 13.3 8 15 8 C14.01 8.495 14.01 8.495 13 9 C13 10.32 13 11.64 13 13 C9.90137066 11.6213147 7.75876568 10.02976802 5.375 7.625 C4.78460938 7.03976563 4.19421875 6.45453125 3.5859375 5.8515625 C1.99106226 3.9895653 0.99301022 2.23181505 0 0 Z " fill="#DE5E32" transform="translate(192,211)"/>
<path d="M0 0 C0.33 0.99 0.66 1.98 1 3 C-0.5 5 -0.5 5 -2 7 C-2.73075648 9.3140622 -3.40138258 11.64828869 -4 14 C-4.33 14.99 -4.66 15.98 -5 17 C-7.0625 17.6875 -7.0625 17.6875 -9 18 C-7.65072455 13.46152802 -5.80840652 9.68067754 -3.375 5.625 C-2.74335938 4.56539062 -2.11171875 3.50578125 -1.4609375 2.4140625 C-0.73777344 1.21910156 -0.73777344 1.21910156 0 0 Z " fill="#E05F32" transform="translate(136,149)"/>
<path d="M0 0 C1.98 0 3.96 0 6 0 C6 0.66 6 1.32 6 2 C7.65 1.67 9.3 1.34 11 1 C11 1.66 11 2.32 11 3 C12.8871875 3.433125 12.8871875 3.433125 14.8125 3.875 C17.8539399 4.57303539 19.30669878 5.20446585 22 7 C14.16008251 6.52960495 7.27928865 3.77062812 0 1 C0 0.67 0 0.34 0 0 Z " fill="#5B9A3F" transform="translate(199,347)"/>
<path d="M0 0 C-0.33 0.99 -0.66 1.98 -1 3 C-2.32 3 -3.64 3 -5 3 C-5 3.66 -5 4.32 -5 5 C-2.69 5.33 -0.38 5.66 2 6 C-1.42943519 7.18771723 -3.37784675 6.80226223 -6.75 5.5625 C-7.54921875 5.27503906 -8.3484375 4.98757812 -9.171875 4.69140625 C-9.77515625 4.46324219 -10.3784375 4.23507813 -11 4 C-11 3.34 -11 2.68 -11 2 C-7.04548703 0.28994034 -4.29393639 0 0 0 Z " fill="#E75A2F" transform="translate(235,232)"/>
<path d="M0 0 C0.33 0.99 0.66 1.98 1 3 C-1.14926381 5.39105598 -2.99036913 6.63278854 -6 7.75 C-6.680625 8.01296875 -7.36125 8.2759375 -8.0625 8.546875 C-10 9 -10 9 -13 8 C-8.71 5.36 -4.42 2.72 0 0 Z " fill="#CBF1BB" transform="translate(265,335)"/>
<path d="M0 0 C2.60085248 2.43279739 4.62822835 5.09888774 6.6875 8 C7.62142578 9.299375 7.62142578 9.299375 8.57421875 10.625 C10 13 10 13 10 16 C3.61299749 11.6953353 1.54912835 7.46532327 0 0 Z " fill="#55913C" transform="translate(169,266)"/>
<path d="M0 0 C3.37992169 0.53771481 6.68737889 1.14303932 10 2 C8.42274653 2.70133599 6.83788667 3.385583 5.25 4.0625 C4.36828125 4.44535156 3.4865625 4.82820312 2.578125 5.22265625 C-0.15256309 6.04600008 -1.36901347 5.9773992 -4 5 C-3.01 5 -2.02 5 -1 5 C-0.67 3.35 -0.34 1.7 0 0 Z " fill="#E25F32" transform="translate(271,232)"/>
<path d="M0 0 C4.66666667 4 9.33333333 8 14 12 C13.01 12.33 12.02 12.66 11 13 C8.8125 11.6875 8.8125 11.6875 7 10 C7 9.34 7 8.68 7 8 C6.01 7.67 5.02 7.34 4 7 C0 2.54285714 0 2.54285714 0 0 Z " fill="#59953F" transform="translate(180,282)"/>
<path d="M0 0 C0.886875 0.103125 1.77375 0.20625 2.6875 0.3125 C3.0175 1.6325 3.3475 2.9525 3.6875 4.3125 C2.82898438 4.00505859 2.82898438 4.00505859 1.953125 3.69140625 C-0.91160136 3.21230546 -2.04724736 3.86661105 -4.5625 5.25 C-5.62210938 5.82041016 -5.62210938 5.82041016 -6.703125 6.40234375 C-7.23421875 6.70269531 -7.7653125 7.00304687 -8.3125 7.3125 C-8.3125 5.3125 -8.3125 5.3125 -6.1875 2.6875 C-3.3125 0.3125 -3.3125 0.3125 0 0 Z " fill="#5A993A" transform="translate(172.3125,330.6875)"/>
<path d="M0 0 C0.33 0.99 0.66 1.98 1 3 C-4.75 6 -4.75 6 -7 6 C-6.67 4.35 -6.34 2.7 -6 1 C-3 0 -3 0 0 0 Z " fill="#E85B2D" transform="translate(288,227)"/>
<path d="M0 0 C1.77433812 0.93084971 3.54435149 1.86994613 5.3125 2.8125 C6.29863281 3.33457031 7.28476563 3.85664063 8.30078125 4.39453125 C10.61665068 5.7719876 12.23611001 6.99530591 14 9 C8.45460827 8.20780118 4.23194131 5.60498704 0 2 C0 1.34 0 0.68 0 0 Z " fill="#58973C" transform="translate(194,295)"/>
<path d="M0 0 C0 2 0 2 -2.3125 4.625 C-5 7 -5 7 -8 7 C-8.33 7.66 -8.66 8.32 -9 9 C-9.99 8.67 -10.98 8.34 -12 8 C-10.37982158 6.66081194 -8.75370657 5.3288031 -7.125 4 C-6.22007812 3.2575 -5.31515625 2.515 -4.3828125 1.75 C-2 0 -2 0 0 0 Z " fill="#C9EFB8" transform="translate(292,317)"/>
<path d="M0 0 C0 0.33 0 0.66 0 1 C-1.134375 1.309375 -2.26875 1.61875 -3.4375 1.9375 C-6.78775099 2.62924531 -6.78775099 2.62924531 -8 4 C-10.67058851 4.14115161 -13.32432238 4.04247107 -16 4 C-13.20344553 2.54120507 -10.41743581 1.34614948 -7.4375 0.3125 C-6.67308594 0.04050781 -5.90867187 -0.23148437 -5.12109375 -0.51171875 C-3 -1 -3 -1 0 0 Z " fill="#5C963E" transform="translate(286,308)"/>
<path d="M0 0 C0.66 0 1.32 0 2 0 C3.125 1.6875 3.125 1.6875 4 4 C3.125 6.75 3.125 6.75 2 9 C1.34 9 0.68 9 0 9 C0 6.03 0 3.06 0 0 Z " fill="#E65D2F" transform="translate(167,125)"/>
<path d="M0 0 C0.33 0.99 0.66 1.98 1 3 C0.01 3.66 -0.98 4.32 -2 5 C-2.72382467 7.05925139 -2.72382467 7.05925139 -3 9 C-4.65 9.33 -6.3 9.66 -8 10 C-7.04367001 8.70684939 -6.08486149 7.41553147 -5.125 6.125 C-4.59132813 5.40570313 -4.05765625 4.68640625 -3.5078125 3.9453125 C-2 2 -2 2 0 0 Z " fill="#CAF2BC" transform="translate(314,293)"/>
<path d="M0 0 C0.66 0 1.32 0 2 0 C0.54955729 4.10958767 -1.51110752 7.43258745 -4 11 C-4.99 10.67 -5.98 10.34 -7 10 C-5.88321917 8.3278148 -4.75633648 6.66237197 -3.625 5 C-2.99851562 4.071875 -2.37203125 3.14375 -1.7265625 2.1875 C-1.15679687 1.465625 -0.58703125 0.74375 0 0 Z " fill="#74A159" transform="translate(326,272)"/>
<path d="M0 0 C0.99 0 1.98 0 3 0 C4.35278115 1.98689731 5.68568305 3.98745218 7 6 C7.99 6.33 8.98 6.66 10 7 C9.67 7.99 9.34 8.98 9 10 C6.95880212 8.38405168 4.95927063 6.7143618 3 5 C3 4.34 3 3.68 3 3 C2.34 3 1.68 3 1 3 C0.67 2.01 0.34 1.02 0 0 Z " fill="#FC7C12" transform="translate(218,176)"/>
<path d="M0 0 C0.66 0.66 1.32 1.32 2 2 C-1.60957611 5.2910841 -4.12637153 6.54663921 -9 7 C-6.24479785 4.04070881 -3.53372712 1.96318174 0 0 Z " fill="#C8F0B7" transform="translate(276,328)"/>
<path d="M0 0 C0 0.99 0 1.98 0 3 C-0.66 3.66 -1.32 4.32 -2 5 C-2.103125 5.66 -2.20625 6.32 -2.3125 7 C-2.539375 7.66 -2.76625 8.32 -3 9 C-5.5625 10.25 -5.5625 10.25 -8 11 C-6.63629701 8.00779732 -5.05091917 5.70973471 -2.875 3.25 C-2.33617187 2.63640625 -1.79734375 2.0228125 -1.2421875 1.390625 C-0.62730469 0.70226562 -0.62730469 0.70226562 0 0 Z " fill="#DB5F36" transform="translate(150,131)"/>
<path d="M0 0 C0.33 1.32 0.66 2.64 1 4 C0.34 4 -0.32 4 -1 4 C-1.33 5.65 -1.66 7.3 -2 9 C-2.33 9 -2.66 9 -3 9 C-3.1875 5.625 -3.1875 5.625 -3 2 C-2.01 1.34 -1.02 0.68 0 0 Z " fill="#DC6037" transform="translate(170,113)"/>
<path d="M0 0 C2.64 0.33 5.28 0.66 8 1 C7.67 2.32 7.34 3.64 7 5 C4.11424181 4.60196439 3.17810487 4.20990931 1.25 1.9375 C0.8375 1.298125 0.425 0.65875 0 0 Z " fill="#F4830D" transform="translate(272,89)"/>
<path d="M0 0 C0.99 0.33 1.98 0.66 3 1 C-0.465 3.97 -0.465 3.97 -4 7 C-3.04065919 3.16263678 -2.76390737 2.40339772 0 0 Z " fill="#66A549" transform="translate(295,310)"/>
<path d="M0 0 C0.99 0.33 1.98 0.66 3 1 C0.36 2.98 -2.28 4.96 -5 7 C-5 6.01 -5 5.02 -5 4 C-3.35 3.34 -1.7 2.68 0 2 C0 1.34 0 0.68 0 0 Z " fill="#61A044" transform="translate(278,324)"/>
<path d="M0 0 C0.66 0.99 1.32 1.98 2 3 C1.67 3.66 1.34 4.32 1 5 C1.66 5.33 2.32 5.66 3 6 C1.35 6.33 -0.3 6.66 -2 7 C-1.125 2.25 -1.125 2.25 0 0 Z " fill="#569C39" transform="translate(130,314)"/>
<path d="M0 0 C3 1 3 1 4 3 C4.99 3.33 5.98 3.66 7 4 C7 4.66 7 5.32 7 6 C3.54074837 4.7508258 0.85306797 3.32472205 -2 1 C-1.34 0.67 -0.68 0.34 0 0 Z " fill="#DA5F37" transform="translate(210,226)"/>
<path d="M0 0 C0 0.66 0 1.32 0 2 C-3.4019487 4.09350689 -6.05272412 4.17942163 -10 4 C-4 0 -4 0 0 0 Z " fill="#E45D33" transform="translate(201,97)"/>
<path d="M0 0 C1.32 0 2.64 0 4 0 C3.625 2.4375 3.625 2.4375 3 5 C2.01 5.495 2.01 5.495 1 6 C0.34 4.35 -0.32 2.7 -1 1 C-0.67 0.67 -0.34 0.34 0 0 Z " fill="#D2E9C8" transform="translate(363,289)"/>
<path d="M0 0 C1.32 0.66 2.64 1.32 4 2 C0.77208445 4.1519437 -0.28400809 4.20086443 -4 4 C-2.68 2.68 -1.36 1.36 0 0 Z " fill="#E55D33" transform="translate(175,109)"/>
</svg>
